<?xml version="1.0" encoding="UTF-8" standalone="no"?>
<!-- Created with Inkscape (http://www.inkscape.org/) -->

<svg
   width="33.519707mm"
   height="22.565414mm"
   viewBox="0 0 33.519707 22.565414"
   version="1.1"
   id="svg5"
   xml:space="preserve"
   inkscape:export-filename="logo.png"
   inkscape:export-xdpi="96"
   inkscape:export-ydpi="96"
   inkscape:version="1.2.2 (732a01da63, 2022-12-09)"
   sodipodi:docname="logo.svg"
   xmlns:inkscape="http://www.inkscape.org/namespaces/inkscape"
   xmlns:sodipodi="http://sodipodi.sourceforge.net/DTD/sodipodi-0.dtd"
   xmlns:xlink="http://www.w3.org/1999/xlink"
   xmlns="http://www.w3.org/2000/svg"
   xmlns:svg="http://www.w3.org/2000/svg"><sodipodi:namedview
     id="namedview7"
     pagecolor="#ffffff"
     bordercolor="#666666"
     borderopacity="1.0"
     inkscape:showpageshadow="2"
     inkscape:pageopacity="0.0"
     inkscape:pagecheckerboard="0"
     inkscape:deskcolor="#d1d1d1"
     inkscape:document-units="mm"
     showgrid="false"
     inkscape:zoom="1.1893044"
     inkscape:cx="-96.274764"
     inkscape:cy="150.08773"
     inkscape:window-width="1920"
     inkscape:window-height="991"
     inkscape:window-x="-9"
     inkscape:window-y="-9"
     inkscape:window-maximized="1"
     inkscape:current-layer="layer1" /><defs
     id="defs2"><linearGradient
       inkscape:collect="always"
       id="linearGradient1336"><stop
         style="stop-color:#01258b;stop-opacity:1;"
         offset="0.30260047"
         id="stop1332" /><stop
         style="stop-color:#5c5c5c;stop-opacity:0.45522389;"
         offset="1"
         id="stop1334" /></linearGradient><linearGradient
       inkscape:collect="always"
       id="linearGradient1305"><stop
         style="stop-color:#000000;stop-opacity:1;"
         offset="0"
         id="stop1301" /><stop
         style="stop-color:#000000;stop-opacity:0;"
         offset="1"
         id="stop1303" /></linearGradient><linearGradient
       id="linearGradient1252"
       inkscape:swatch="solid"><stop
         style="stop-color:#000000;stop-opacity:1;"
         offset="0"
         id="stop1250" /></linearGradient><linearGradient
       inkscape:collect="always"
       xlink:href="#linearGradient1305"
       id="linearGradient1307"
       x1="60.562435"
       y1="147.40932"
       x2="161.24429"
       y2="147.40932"
       gradientUnits="userSpaceOnUse"
       gradientTransform="matrix(0.42011329,0,0,0.42011329,77.143769,76.433978)" /><linearGradient
       inkscape:collect="always"
       xlink:href="#linearGradient1336"
       id="linearGradient9925"
       x1="112.72569"
       y1="134.3031"
       x2="131.58308"
       y2="134.3031"
       gradientUnits="userSpaceOnUse" /></defs><g
     inkscape:label="Layer 1"
     inkscape:groupmode="layer"
     id="layer1"
     transform="translate(-70.18374,-88.827015)"><text
       xml:space="preserve"
       style="font-size:3.175px;line-height:1.25;font-family:Vivaldi;-inkscape-font-specification:Vivaldi;letter-spacing:0px;stroke-width:0.264583"
       x="41.529659"
       y="114.20657"
       id="text4415"><tspan
         sodipodi:role="line"
         id="tspan4413"
         style="stroke-width:0.264583"
         x="41.529659"
         y="114.20657"></tspan></text><g
       id="g7994"
       transform="translate(-42.54195,-34.193377)"><g
         id="g8471"><g
           id="g10001"><path
             style="opacity:1;fill:url(#linearGradient9925);fill-opacity:1;stroke:url(#linearGradient1307);stroke-width:0.111155;stroke-opacity:1"
             d="m 123.93246,145.31133 c -3.50215,-0.74992 -6.2008,-3.34175 -7.12229,-6.84038 -0.32801,-1.24535 -0.32801,-3.312 0,-4.55735 0.67561,-2.5651 2.27173,-4.63416 4.57565,-5.93148 1.13919,-0.64147 2.86052,-1.12369 4.01944,-1.12603 l 0.41683,-8.4e-4 v 0.87488 0.87489 l -0.69472,0.0745 c -2.8909,0.31005 -5.29442,2.20116 -6.33113,4.9814 -0.28935,0.77597 -0.35074,1.11926 -0.39306,2.19788 -0.0597,1.52201 0.11836,2.43811 0.70492,3.62644 1.17127,2.37291 3.35981,3.87778 6.13043,4.21533 l 0.58356,0.0711 v 0.87881 0.8788 l -0.4724,-0.008 c -0.25983,-0.004 -0.89758,-0.0989 -1.41723,-0.21014 z m 0.45625,-3.73722 c -0.92138,-0.24777 -1.66422,-0.69642 -2.4669,-1.48993 -1.68712,-1.66783 -2.11362,-4.15733 -1.0832,-6.32258 0.76142,-1.60001 2.64497,-2.9698 4.26214,-3.09961 l 0.72134,-0.0579 v 2.79409 2.79409 h 2.84878 2.84877 l -0.077,0.58031 c -0.31461,2.37162 -1.91428,4.21022 -4.19011,4.81596 -0.75595,0.2012 -2.08693,0.1945 -2.86384,-0.0144 z m -11.54019,-6.46561 c 0.3013,-5.11124 4.05783,-9.8396 9.06564,-11.41096 0.93306,-0.29278 2.79406,-0.62157 3.51816,-0.62157 h 0.38977 v 0.87947 0.87947 l -0.41683,0.0597 c -0.22925,0.0328 -0.71644,0.0923 -1.08263,0.13225 -3.39597,0.37019 -6.82308,2.78293 -8.43752,5.94014 -0.78594,1.537 -1.28967,3.36565 -1.28967,4.68179 v 0.54349 h -0.9054 -0.9054 z"
             id="path248"
             sodipodi:nodetypes="csssscccsssssccccccssscccccssccssscccccsscccs" /><text
             xml:space="preserve"
             style="font-style:normal;font-variant:normal;font-weight:normal;font-stretch:normal;font-size:6.7735px;line-height:1.25;font-family:'Palatino Linotype';-inkscape-font-specification:'Palatino Linotype';letter-spacing:0px;fill:#042d8e;fill-opacity:0.980392;stroke:none;stroke-width:0.211672;stroke-opacity:0.980392"
             x="126.50841"
             y="128.09592"
             id="text1394"><tspan
               sodipodi:role="line"
               id="tspan1392"
               style="font-style:normal;font-variant:normal;font-weight:normal;font-stretch:normal;font-size:6.7735px;font-family:'Palatino Linotype';-inkscape-font-specification:'Palatino Linotype';fill:#042d8e;fill-opacity:0.980392;stroke:none;stroke-width:0.211672;stroke-opacity:0.980392"
               x="126.50841"
               y="128.09592">CBS</tspan></text><text
             xml:space="preserve"
             style="font-size:6.71857px;line-height:1.25;font-family:'Palatino Linotype';-inkscape-font-specification:'Palatino Linotype';letter-spacing:0px;fill:#032d8e;fill-opacity:0.980392;stroke:none;stroke-width:0.209955"
             x="126.78188"
             y="135.00468"
             id="text4419"><tspan
               sodipodi:role="line"
               id="tspan4417"
               style="font-size:6.71857px;fill:#032d8e;fill-opacity:0.980392;stroke:none;stroke-width:0.209955;stroke-opacity:0.980392"
               x="126.78188"
               y="135.00468">Radon</tspan></text></g></g></g></g></svg>
